<svg xmlns="http://www.w3.org/2000/svg" xmlns:xlink="http://www.w3.org/1999/xlink" version="1.1" x="0px" y="0px" viewBox="0 0 100 125" style="enable-background:new 0 0 100 100;" xml:space="preserve"><path d="M9.9,91.6c0,2.1-1.7,3.8-3.8,3.8s-3.8-1.7-3.8-3.8s1.7-3.8,3.8-3.8S9.9,89.5,9.9,91.6z M6.1,90.1c-0.8,0-1.5,0.7-1.5,1.5  s0.7,1.5,1.5,1.5s1.5-0.7,1.5-1.5S6.9,90.1,6.1,90.1z"/><path d="M15.4,68.4c0,3.2-2.6,5.8-5.8,5.8s-5.8-2.6-5.8-5.8s2.6-5.7,5.8-5.7S15.4,65.2,15.4,68.4z M9.6,66.2c-1.2,0-2.2,1-2.2,2.2  s1,2.2,2.2,2.2s2.2-1,2.2-2.2S10.8,66.2,9.6,66.2z"/><path d="M34.1,39.8c0,4.6-3.7,8.2-8.3,8.2s-8.2-3.7-8.2-8.2s3.7-8.3,8.2-8.3S34.1,35.3,34.1,39.8z M25.9,37c-1.6,0-2.8,1.3-2.8,2.8  c0,1.6,1.3,2.8,2.8,2.8s2.8-1.3,2.8-2.8C28.7,38.2,27.4,37,25.9,37z"/><path d="M65,20.6c0,5.4-4.4,9.8-9.8,9.8s-9.8-4.4-9.8-9.8s4.4-9.7,9.8-9.7S65,15.2,65,20.6z M55.3,16.8c-2.1,0-3.8,1.7-3.8,3.8  s1.7,3.8,3.8,3.8s3.8-1.7,3.8-3.8S57.4,16.8,55.3,16.8z"/><path d="M64.8,16.6c0.4,0.9,0.6,1.9,0.7,2.9c3.5-0.6,7.2-0.9,10.9-0.9v-3C72.4,15.6,68.5,15.9,64.8,16.6z"/><path d="M79.1,6.3l16.4,9.5c1,0.6,1,1.9,0,2.5l-16.4,9.5c-1,0.6-2.2-0.1-2.2-1.2V7.6C76.9,6.5,78.1,5.8,79.1,6.3z"/><path d="M33.1,34.9c4.1-3.5,8.6-6.6,13.4-9.1C46,25,45.6,24,45.4,23c-5.2,2.6-10,5.9-14.4,9.7C31.8,33.3,32.5,34.1,33.1,34.9z"/><path d="M13,63.3c2.3-5.7,5.2-11,8.6-15.9c-0.9-0.5-1.7-1.1-2.3-1.9c-3.7,5.1-6.8,10.8-9.1,16.8C11.2,62.4,12.2,62.8,13,63.3z"/><path d="M6.1,87.5c0.6,0,1.1,0.1,1.6,0.3c0.2-4.6,0.8-9.1,1.8-13.5c-1.1,0-2-0.3-2.9-0.8c-1.1,4.6-1.7,9.3-1.9,14.2  C5.1,87.6,5.6,87.5,6.1,87.5z"/><text x="0" y="115" fill="#000000" font-size="5px" font-weight="bold" font-family="'Helvetica Neue', Helvetica, Arial-Unicode, Arial, Sans-serif">Created by Joel Olson</text><text x="0" y="120" fill="#000000" font-size="5px" font-weight="bold" font-family="'Helvetica Neue', Helvetica, Arial-Unicode, Arial, Sans-serif">from the Noun Project</text></svg>